<svg width="40" height="28" viewBox="0 0 40 28" fill="none" xmlns="http://www.w3.org/2000/svg">
<path d="M39.9908 9.84148C40.0806 7.25759 39.5119 4.69303 38.3373 2.38593C37.5403 1.43927 36.4343 0.800422 35.212 0.580709C30.1561 0.124936 25.0793 -0.0618695 20.0034 0.0210909C14.946 -0.0656349 9.88744 0.115143 4.84933 0.562657C3.85327 0.742667 2.93148 1.20683 2.19646 1.89852C0.561129 3.39685 0.379426 5.96026 0.197722 8.12652C-0.0659074 12.0214 -0.0659074 15.9295 0.197722 19.8243C0.250289 21.0436 0.433017 22.2539 0.742833 23.4348C0.961922 24.3465 1.40518 25.1901 2.03293 25.8899C2.77295 26.6182 3.7162 27.1088 4.74031 27.2979C8.65768 27.7783 12.6048 27.9774 16.551 27.8937C22.9107 27.9839 28.489 27.8937 35.0848 27.3882C36.134 27.2107 37.1039 26.7195 37.8649 25.9801C38.3736 25.4745 38.7535 24.8557 38.9732 24.1749C39.6231 22.1939 39.9422 20.1206 39.9181 18.0372C39.9908 17.0263 39.9908 10.9246 39.9908 9.84148ZM15.8969 19.1203V7.946L26.6538 13.5602C23.6375 15.221 19.6582 17.0985 15.8969 19.1203Z" fill="#8372C8"/>
</svg>
